<svg width="130" height="88" viewBox="0 0 130 88" fill="none" xmlns="http://www.w3.org/2000/svg">
<g clip-path="url(#clip0_23_2)">
<path d="M0 60.1725C1.26979 60.1725 2.53958 60.1782 3.80938 60.1725C6.07645 60.1609 6.86499 59.4133 6.91718 57.1703C7.20128 44.8212 10.8251 33.5632 18.238 23.633C27.3875 11.3849 39.5172 3.67753 54.6416 1.00159C72.1114 -2.08714 87.9142 1.97729 101.708 13.0534C112.823 21.979 119.65 33.6094 122.164 47.6357C122.741 50.8543 122.88 54.1538 123.147 57.4215C123.303 59.3267 124.06 60.1378 126.011 60.1696C127.315 60.1898 128.62 60.1725 130 60.1725V87.8787H125.466V76.433H120.851V87.922H111.527V74.1468H106.926V87.9104H97.6261V76.4417H92.9905V87.8845H83.641V74.1497H79.0576V87.8931H67.3772V76.4302H62.788V87.8989H53.4385V74.1815H48.8087V87.9075H37.1776V76.4619H32.542V87.9133H23.1983V74.1641H18.5975V87.8989H9.27992V76.4533H4.71099V88.0028H0V60.1753V60.1725ZM65.0116 60.1725C69.7951 60.1725 74.5756 60.1725 79.3591 60.1725C86.5546 60.1725 93.7472 60.1725 100.943 60.1725C103.813 60.1725 104.506 59.5056 104.424 56.7056C104.169 47.7223 101.14 39.7406 95.417 32.8357C84.6615 19.8515 66.8612 15.2617 51.1222 21.1303C36.276 26.664 25.9438 41.0165 25.6423 56.7835C25.5901 59.4421 26.3003 60.1725 28.953 60.1753C40.9725 60.1753 52.9921 60.1753 65.0116 60.1753V60.1725Z" fill="#EB5D8D"/>
</g>
<defs>
<clipPath id="clip0_23_2">
<rect width="130" height="88" fill="white"/>
</clipPath>
</defs>
</svg>
